<svg xmlns="http://www.w3.org/2000/svg" id="prefix__Restaurant_MealKits_com_3x" width="122.904" height="49.809" data-name="Restaurant MealKits.com@3x" viewBox="0 0 122.904 49.809">
    <path id="prefix__Path_9" d="M8.261 13.453H4.246V21.4H.644V.781h7.29a8.518 8.518 0 0 1 5.538 1.6 5.643 5.643 0 0 1 1.951 4.63 5.775 5.775 0 0 1-1.011 3.469 6.354 6.354 0 0 1-2.791 2.138l4.656 8.594v.188h-3.859zm-4.015-2.874h3.7a4.153 4.153 0 0 0 2.854-.906 3.2 3.2 0 0 0 1.02-2.506 3.366 3.366 0 0 0-.954-2.567 4.009 4.009 0 0 0-2.819-.93h-3.8zm19.76 11.058a6.134 6.134 0 0 1-4.538-1.745 6.365 6.365 0 0 1-1.731-4.669v-.361a7.791 7.791 0 0 1 .75-3.478 5.768 5.768 0 0 1 2.13-2.395 5.638 5.638 0 0 1 3.05-.854 5.135 5.135 0 0 1 4.127 1.7 7.128 7.128 0 0 1 1.464 4.8v1.179H20.7a3.916 3.916 0 0 0 1.077 2.551 3.282 3.282 0 0 0 2.4.939 3.99 3.99 0 0 0 3.292-1.625l1.585 1.5A5.323 5.323 0 0 1 26.946 21a6.617 6.617 0 0 1-2.94.636zm-.351-11.157a2.5 2.5 0 0 0-1.96.842 4.382 4.382 0 0 0-.944 2.347h5.6v-.217a3.515 3.515 0 0 0-.787-2.214 2.454 2.454 0 0 0-1.909-.758zm15.236 7.377a1.321 1.321 0 0 0-.653-1.191 6.824 6.824 0 0 0-2.142-.722 11.084 11.084 0 0 1-2.505-.794 3.326 3.326 0 0 1-2.2-3.069 3.46 3.46 0 0 1 1.428-2.816 5.667 5.667 0 0 1 3.631-1.131 5.871 5.871 0 0 1 3.788 1.155 3.653 3.653 0 0 1 1.452 3h-2.944a1.78 1.78 0 0 0-.629-1.4 2.4 2.4 0 0 0-1.67-.566 2.644 2.644 0 0 0-1.585.445 1.406 1.406 0 0 0-.605 1.191 1.184 1.184 0 0 0 .569 1.047 7.932 7.932 0 0 0 2.3.758 10.5 10.5 0 0 1 2.711.9A3.739 3.739 0 0 1 41.3 15.92a3.164 3.164 0 0 1 .484 1.781 3.4 3.4 0 0 1-1.464 2.852 6.294 6.294 0 0 1-3.836 1.083 6.8 6.8 0 0 1-2.868-.578 4.715 4.715 0 0 1-1.961-1.589 3.747 3.747 0 0 1-.7-2.178h2.856a2.075 2.075 0 0 0 .787 1.6 3.092 3.092 0 0 0 1.924.554 3.018 3.018 0 0 0 1.767-.433 1.372 1.372 0 0 0 .602-1.154zM48.04 5.209v3.165h2.311v2.166H48.04v7.27a1.644 1.644 0 0 0 .29 1.083 1.417 1.417 0 0 0 1.065.325 4.556 4.556 0 0 0 1.029-.12v2.262a7.279 7.279 0 0 1-1.936.277q-3.389 0-3.389-3.719v-7.377h-2.154V8.374H45.1V5.209zM60.432 21.4a4.49 4.49 0 0 1-.339-1.216 4.967 4.967 0 0 1-6.656.337 3.572 3.572 0 0 1-1.246-2.768 3.679 3.679 0 0 1 1.549-3.193 7.566 7.566 0 0 1 4.453-1.119H60v-.854a2.251 2.251 0 0 0-.569-1.613 2.249 2.249 0 0 0-1.731-.614 2.579 2.579 0 0 0-1.646.505 1.527 1.527 0 0 0-.641 1.264h-2.944a3.21 3.21 0 0 1 .714-2 4.738 4.738 0 0 1 1.937-1.466 6.9 6.9 0 0 1 2.747-.53 5.5 5.5 0 0 1 3.667 1.155 4.07 4.07 0 0 1 1.4 3.225v5.873a6.624 6.624 0 0 0 .5 2.8v.2zM57.2 19.29a3.326 3.326 0 0 0 1.634-.421A2.813 2.813 0 0 0 60 17.737v-2.455h-1.589a4.354 4.354 0 0 0-2.457.566 1.829 1.829 0 0 0-.823 1.6 1.732 1.732 0 0 0 .557 1.348 2.227 2.227 0 0 0 1.512.494zm16.749.83a4.573 4.573 0 0 1-3.679 1.516 4.1 4.1 0 0 1-3.23-1.236 5.273 5.273 0 0 1-1.089-3.586v-8.44h2.941v8.4q0 2.479 2.07 2.479a2.91 2.91 0 0 0 2.892-1.528V8.374h2.941V21.4h-2.772zm12.695-9.074a7.318 7.318 0 0 0-1.2-.1 2.7 2.7 0 0 0-2.723 1.54V21.4h-2.938V8.374h2.808l.073 1.456a3.317 3.317 0 0 1 2.953-1.7 2.767 2.767 0 0 1 1.041.168zm9.32 10.354a4.49 4.49 0 0 1-.339-1.216 4.967 4.967 0 0 1-6.656.337 3.572 3.572 0 0 1-1.246-2.768 3.679 3.679 0 0 1 1.549-3.189 7.565 7.565 0 0 1 4.453-1.119h1.8v-.854a2.252 2.252 0 0 0-.569-1.613 2.249 2.249 0 0 0-1.731-.614 2.579 2.579 0 0 0-1.646.505 1.527 1.527 0 0 0-.641 1.264H88a3.21 3.21 0 0 1 .714-2 4.738 4.738 0 0 1 1.936-1.468 6.9 6.9 0 0 1 2.747-.53 5.5 5.5 0 0 1 3.667 1.155 4.07 4.07 0 0 1 1.4 3.225v5.873a6.624 6.624 0 0 0 .5 2.8v.2zm-3.232-2.11a3.326 3.326 0 0 0 1.634-.421 2.814 2.814 0 0 0 1.162-1.131v-2.456h-1.585a4.354 4.354 0 0 0-2.457.566 1.829 1.829 0 0 0-.823 1.6 1.732 1.732 0 0 0 .557 1.352 2.227 2.227 0 0 0 1.512.49zm11.546-10.916l.085 1.5a4.719 4.719 0 0 1 3.812-1.745q4.09 0 4.163 4.657v8.6H109.4V12.96a2.627 2.627 0 0 0-.545-1.829 2.239 2.239 0 0 0-1.755-.6 2.836 2.836 0 0 0-2.65 1.6V21.4h-2.941V8.374zm14.752-3.165v3.165h2.311v2.166h-2.311v7.27a1.644 1.644 0 0 0 .29 1.083 1.417 1.417 0 0 0 1.065.325 4.557 4.557 0 0 0 1.029-.12v2.262a7.279 7.279 0 0 1-1.936.277q-3.389 0-3.389-3.719v-7.377h-2.154V8.374h2.154V5.209zM3.281 35.962l4.186 11.06 4.176-11.06H14.9v14.43h-2.51v-4.757l.249-6.363-4.285 11.12H6.55l-4.276-11.11.249 6.353v4.757H.012v-14.43zM22.406 50.59a5.052 5.052 0 0 1-3.737-1.437 5.242 5.242 0 0 1-1.425-3.845v-.3a6.415 6.415 0 0 1 .618-2.864 4.751 4.751 0 0 1 1.754-1.972 4.644 4.644 0 0 1 2.512-.7 4.229 4.229 0 0 1 3.4 1.4 5.869 5.869 0 0 1 1.206 3.954v.971h-7.049a3.224 3.224 0 0 0 .887 2.1 2.7 2.7 0 0 0 1.973.773 3.286 3.286 0 0 0 2.711-1.338l1.306 1.239a4.384 4.384 0 0 1-1.734 1.5 5.449 5.449 0 0 1-2.422.519zm-.289-9.19a2.06 2.06 0 0 0-1.617.7 3.609 3.609 0 0 0-.777 1.933h4.614v-.178a2.894 2.894 0 0 0-.648-1.824 2.022 2.022 0 0 0-1.572-.631zm12.946 8.989a3.7 3.7 0 0 1-.279-1 4.091 4.091 0 0 1-5.482.277 2.942 2.942 0 0 1-1.027-2.28 3.031 3.031 0 0 1 1.276-2.626 6.232 6.232 0 0 1 3.668-.922H34.7v-.7a1.695 1.695 0 0 0-1.889-1.838 2.123 2.123 0 0 0-1.355.416 1.257 1.257 0 0 0-.528 1.041h-2.423a2.643 2.643 0 0 1 .588-1.645 3.9 3.9 0 0 1 1.595-1.209 5.683 5.683 0 0 1 2.262-.436 4.526 4.526 0 0 1 3.02.951 3.352 3.352 0 0 1 1.156 2.656v4.836a5.456 5.456 0 0 0 .409 2.309v.168zM32.4 48.658a2.739 2.739 0 0 0 1.346-.347 2.318 2.318 0 0 0 .957-.932v-2.022H33.4a3.586 3.586 0 0 0-2.023.466 1.507 1.507 0 0 0-.678 1.318 1.426 1.426 0 0 0 .458 1.11 1.834 1.834 0 0 0 1.243.407zm9.837 1.734h-2.42V35.169h2.422zm7.046-6.234l-1.644 1.734v4.5h-2.52v-14.43h2.521v6.769l1.4-1.715 4.246-5.054h3.05l-5.396 6.392 5.7 8.038h-2.99zm11.053 6.234h-2.42V39.668h2.422zm-2.57-13.508a1.284 1.284 0 0 1 .349-.922 1.592 1.592 0 0 1 2.033 0 1.35 1.35 0 0 1 0 1.833 1.627 1.627 0 0 1-2.033 0 1.271 1.271 0 0 1-.349-.911zm8.252.178v2.606h1.9v1.784h-1.9v5.986a1.353 1.353 0 0 0 .239.892 1.167 1.167 0 0 0 .877.268 3.749 3.749 0 0 0 .847-.1v1.863a6 6 0 0 1-1.595.228q-2.791 0-2.791-3.062v-6.075h-1.772v-1.784H63.6v-2.606zm9.807 10.416a1.088 1.088 0 0 0-.538-.981 5.62 5.62 0 0 0-1.764-.595 9.128 9.128 0 0 1-2.063-.654 2.738 2.738 0 0 1-1.814-2.527 2.849 2.849 0 0 1 1.176-2.321 4.666 4.666 0 0 1 2.99-.932 4.835 4.835 0 0 1 3.12.951 3.008 3.008 0 0 1 1.2 2.468h-2.426a1.466 1.466 0 0 0-.518-1.15 1.98 1.98 0 0 0-1.375-.466 2.177 2.177 0 0 0-1.306.367 1.158 1.158 0 0 0-.5.981.975.975 0 0 0 .468.862 6.536 6.536 0 0 0 1.894.624 8.646 8.646 0 0 1 2.233.743 3.079 3.079 0 0 1 1.206 1.031 2.606 2.606 0 0 1 .4 1.467A2.8 2.8 0 0 1 77 49.7a5.184 5.184 0 0 1-3.159.892 5.6 5.6 0 0 1-2.362-.476 3.883 3.883 0 0 1-1.615-1.308 3.085 3.085 0 0 1-.578-1.794h2.352a1.709 1.709 0 0 0 .648 1.318 2.547 2.547 0 0 0 1.585.456 2.486 2.486 0 0 0 1.455-.357 1.13 1.13 0 0 0 .499-.953z" data-name="Path 9" transform="translate(-.012 -.781)" style="fill:#d8355c"/>
    <path id="prefix__Path_10" d="M56.538 35.672a1.337 1.337 0 0 1 1.018.378 1.375 1.375 0 0 1 0 1.853 1.6 1.6 0 0 1-2.017 0 1.23 1.23 0 0 1-.369-.921 1.28 1.28 0 0 1 .359-.931 1.324 1.324 0 0 1 1.009-.379zm8.389.8a2.131 2.131 0 0 0 1.464-.514 1.757 1.757 0 0 0 .621-1.271h2.221a3.486 3.486 0 0 1-.611 1.833 4.022 4.022 0 0 1-1.552 1.338 4.625 4.625 0 0 1-2.114.495 4.474 4.474 0 0 1-3.492-1.426 5.655 5.655 0 0 1-1.29-3.938v-.242a5.542 5.542 0 0 1 1.28-3.831 4.426 4.426 0 0 1 3.492-1.445 4.283 4.283 0 0 1 3.045 1.1 3.883 3.883 0 0 1 1.241 2.861h-2.219a2.148 2.148 0 0 0-.621-1.484 1.965 1.965 0 0 0-1.464-.582 2.07 2.07 0 0 0-1.765.834 4.207 4.207 0 0 0-.63 2.512v.378a4.352 4.352 0 0 0 .611 2.551 2.09 2.09 0 0 0 1.784.826zm5.645-3.656a6.158 6.158 0 0 1 .611-2.774 4.426 4.426 0 0 1 1.717-1.9 4.809 4.809 0 0 1 2.541-.669 4.568 4.568 0 0 1 3.443 1.368 5.367 5.367 0 0 1 1.435 3.627l.01.553a6.2 6.2 0 0 1-.6 2.774 4.369 4.369 0 0 1-1.707 1.891 4.847 4.847 0 0 1-2.56.669 4.575 4.575 0 0 1-3.562-1.48 5.7 5.7 0 0 1-1.329-3.948zm2.357.2a4.251 4.251 0 0 0 .669 2.541 2.179 2.179 0 0 0 1.862.912 2.139 2.139 0 0 0 1.852-.931 4.644 4.644 0 0 0 .669-2.725 4.153 4.153 0 0 0-.689-2.522 2.3 2.3 0 0 0-3.686-.01 4.559 4.559 0 0 0-.677 2.734zm11.609-5.354l.068 1.1a3.776 3.776 0 0 1 3.026-1.29 2.9 2.9 0 0 1 2.881 1.61 3.722 3.722 0 0 1 3.22-1.61 3.256 3.256 0 0 1 2.58.96 4.21 4.21 0 0 1 .873 2.832v6.9h-2.357v-6.837a2.087 2.087 0 0 0-.436-1.464 1.91 1.91 0 0 0-1.445-.466 1.967 1.967 0 0 0-1.319.437 2.262 2.262 0 0 0-.708 1.125l.01 7.2h-2.357v-6.91a1.681 1.681 0 0 0-1.892-1.849 2.075 2.075 0 0 0-2.008 1.154v7.6h-2.356V27.661z" data-name="Path 10" transform="translate(25.718 11.46)"/>
</svg>
